<svg width="93" height="28" viewBox="0 0 93 28" fill="none" xmlns="http://www.w3.org/2000/svg">
<g clip-path="url(#clip0_509_246)">
<path d="M63.891 19.216C63.8902 19.2324 63.8886 19.248 63.8877 19.2629C63.8086 20.435 63.4766 21.5962 62.9039 22.6292C61.4232 25.158 59.0354 26.7188 56.2984 27.4664C50.6907 29.0005 43.6203 27.1231 39.8954 23.1758L42.058 15.6057C42.7955 17.0148 44.0477 18.0931 45.4974 18.8915C46.4584 19.4216 47.5059 19.829 48.5468 20.1269C49.8961 20.489 53.1193 21.3609 54.1537 20.073C54.2989 19.8939 54.4001 19.6726 54.4491 19.4029C54.4703 17.986 50.9477 17.3682 49.5298 16.8076C45.3424 15.7034 41.7056 12.6093 42.3656 8.27959C42.3664 8.27177 42.3672 8.26317 42.3688 8.25535C43.2287 -1.07099 56.3384 -1.90612 63.3412 2.81609L63.3289 2.85831C63.2555 3.11089 62.8647 4.4535 62.456 5.87118C61.9413 7.64934 61.3971 9.54479 61.4077 9.55417C60.8905 9.12801 60.3505 8.76362 59.8014 8.45553C57.3043 7.0488 54.6269 6.80014 53.0704 7.19189C52.4202 7.35532 51.9658 7.63057 51.801 7.97932C51.801 7.98245 51.7986 7.98558 51.7969 7.9887C51.748 8.09661 51.7268 8.21078 51.7357 8.3312C51.7349 8.33276 51.7349 8.33511 51.7357 8.33667C51.7308 8.73234 51.9438 9.13035 52.3827 9.30395C52.4202 9.31959 52.4585 9.33523 52.4969 9.35086C54.8659 10.3236 58.2563 10.9672 60.5544 12.5702C60.5993 12.6014 60.6433 12.6327 60.6866 12.6648C63.0181 14.0785 64.0509 16.6676 63.891 19.216ZM17.3673 0.629751L13.0339 15.7996H12.7451L8.4116 0.629751H0L7.59582 27.2161H16.7327L21.0661 12.0463H21.3549L25.6884 27.2161H32.6487L25.0537 0.629751H17.3673ZM34.0094 0.629751L31.4895 9.45095L35.6949 24.172L42.4211 0.629751H34.0094ZM93 13.7728C93 16.1007 92.5603 18.1165 91.6817 19.8189C90.8023 21.5219 89.6283 22.917 88.1591 24.0054C86.6891 25.0947 84.9971 25.9017 83.0824 26.4279C81.167 26.9534 79.1724 27.2161 77.1003 27.2161H65.9231V0.629751H76.313C78.5173 0.629751 80.6228 0.836186 82.6297 1.24906C84.6365 1.66193 86.4076 2.37585 87.9429 3.38926C89.4774 4.40345 90.7036 5.74919 91.6229 7.4257C92.5407 9.10299 93 11.2182 93 13.772V13.7728ZM83.5156 13.679C83.5156 11.9571 82.925 10.6168 81.7446 9.65583C80.5641 8.69559 78.9896 8.21469 77.0219 8.21469H74.3356V19.5178H76.6679C78.8722 19.5178 80.5641 19.0627 81.7446 18.1517C82.925 17.2408 83.5156 15.7504 83.5156 13.679Z" fill="#001F3F"/>
</g>
<defs>
<clipPath id="clip0_509_246">
<rect width="93" height="28" fill="white"/>
</clipPath>
</defs>
</svg>
